<?xml version="1.0" standalone="no"?><!DOCTYPE svg PUBLIC "-//W3C//DTD SVG 1.1//EN" "http://www.w3.org/Graphics/SVG/1.1/DTD/svg11.dtd"><svg t="1750077991935" class="icon" viewBox="0 0 1024 1024" version="1.1" xmlns="http://www.w3.org/2000/svg" p-id="10398" xmlns:xlink="http://www.w3.org/1999/xlink" width="200" height="200"><path d="M435.456 250.752l7.808 19.392 2.624-22.464C465.728 94.08 513.728 21.12 613.952 33.088c107.328 12.736 131.712 127.68 101.376 272.832l-2.048 9.728-1.472 6.144C845.696 370.752 928 481.92 928 614.4c0 187.52-175.36 356.544-411.584 375.808-249.6 20.288-436.8-135.68-419.328-349.248 7.04-84.864 45.44-160.96 108.8-220.544C123.008 241.28 110.72 118.784 213.056 78.08c92.928-36.928 167.04 39.296 222.4 172.672zM606.464 96.64l-4.352-0.384c-55.936-3.52-85.76 57.856-97.92 210.24l-1.472 19.84-1.664 33.792-26.112 3.84a488.256 488.256 0 0 0-36.48 6.784l-30.912 6.912-7.296-30.72a391.04 391.04 0 0 0-14.656-48.32C341.248 181.376 285.76 118.08 236.8 137.6c-49.792 19.776-40.128 111.36 28.8 259.264 2.752 5.952 5.44 11.52 8.128 16.64l11.904 22.912-19.84 16.512c-61.76 51.136-98.624 117.952-104.832 193.28-14.08 171.2 137.6 297.536 350.336 280.192 204.544-16.64 352.768-159.616 352.768-312 0-112.64-75.008-205.76-199.68-240.768L632.768 364.8l9.6-31.36c3.264-10.752 6.08-21.376 8.448-31.808 25.216-112.896 11.072-193.664-39.68-204.224l-4.672-0.768z" fill="#333333" p-id="10399"></path><path d="M665.472 501.12a48 48 0 0 1 58.176 35.008l15.488 62.08a48 48 0 1 1-93.184 23.232l-15.424-62.08a48 48 0 0 1 34.944-58.24zM418.176 549.12a48 48 0 0 1 58.24 35.008l15.424 62.08a48 48 0 1 1-93.12 23.232l-15.488-62.08a48 48 0 0 1 34.944-58.24z" fill="#7C71F3" p-id="10400"></path></svg>